<svg id="Layer_1" data-name="Layer 1" xmlns="http://www.w3.org/2000/svg" width="1080" height="1080" viewBox="0 0 1080 1080"><title>BE</title><path d="M528.6,338.3h23.7a21.4,21.4,0,0,0,3,.6c28.2,1.9,55,9.2,79.6,23,66.4,37.2,102.5,94,107.1,169.9A184.9,184.9,0,0,1,718.5,635c-37.1,66.2-93.9,102.2-169.7,106.9-36.4,2.3-71.2-5.8-103.2-23.4q-85.4-47-104-143.1c-1.5-7.7-2.1-15.5-3.2-23.3s0-15.8,0-23.7a26.9,26.9,0,0,0,.7-3.4c2-28.2,9.4-54.9,23-79.5,31.4-56.9,79.1-91.7,143-104C512.9,340,520.8,339.4,528.6,338.3ZM392.9,629.9H398c28.1,0,56.3.1,84.4-.1a111.8,111.8,0,0,0,22.7-2.2c18.2-4,32.1-13.8,38.1-32.2,4.2-12.8,4.1-25.8.6-38.8-4.3-16.1-12.8-23.9-29.4-26.3l1.7-.8c16.7-4.6,23.8-18,23.8-33.9s-4.6-29-17.4-38.7c-10.9-8.3-23.7-10.2-36.9-10.3H397.2l-4.3.2ZM593,572.7h94.6c.8-10.1.6-19.7-1.4-29.3-4.1-19.9-13.5-36.1-33-44.6-12.5-5.5-25.7-6.2-39.1-4.9-20.6,2-37.5,10.9-48.5,28.9s-15.1,40.2-9.9,62.1,19.7,39.2,43.1,45.6a97.3,97.3,0,0,0,50.7.2c12.4-3.2,23.2-9.1,30.3-20.4a44.1,44.1,0,0,0,6.5-25.2H654.4c-.9,7.9-4.8,13.2-11.5,16.2s-16,4-24.3,2.9C602,602,592.3,590.2,593,572.7Zm-8.3-92.9h75.1V457.7H584.7Z" fill="#f5edde"/><path d="M338.5,552.1c1,7.8,1.7,15.6,3.2,23.3q18.4,95.9,104,143.1c32,17.6,66.8,25.6,103.2,23.4,75.8-4.7,132.6-40.6,169.7-106.9A184.9,184.9,0,0,0,742,531.8c-4.7-75.9-40.8-132.7-107.1-169.9-24.6-13.8-51.4-21-79.6-23a21.4,21.4,0,0,1-3-.6H743.1V743.7H338.5Q338.5,647.9,338.5,552.1Z" fill="#fff"/><path d="M528.6,338.3c-7.8,1-15.6,1.7-23.3,3.2-63.9,12.3-111.6,47.1-143,104-13.6,24.7-21.1,51.4-23,79.5a26.9,26.9,0,0,1-.7,3.4q0-95,0-190.1Z" fill="#fff"/><path d="M434.9,597V548.3H484c14.2,0,22.3,7.6,23.2,21.7a46.2,46.2,0,0,1-.1,7.5c-1.3,12.7-8,19.4-20.7,19.7-16.6.3-33.1.1-49.7.1Z" fill="#f5edde"/><path d="M434.7,520.2c0-13.1,0-25.6,0-38,0-.8.1-1.5.1-2.6l2.8-.2h48.9c6.3,0,10.8,3.1,12.8,9.1a35.6,35.6,0,0,1-.1,22.5c-1.7,5.6-5.7,8.8-11.6,9-11.7.2-23.4.2-35.1.3Z" fill="#f5edde"/><path d="M652.1,548.1H592.8a31.5,31.5,0,0,1,33.2-28C643.8,520.9,652.2,534.9,652.1,548.1Z" fill="#f5edde"/></svg>