<svg id="Layer_1" data-name="Layer 1" xmlns="http://www.w3.org/2000/svg" width="1080" height="1080" viewBox="0 0 1080 1080"><title>linkedin</title><path d="M540.6,737.9H383.5a39.7,39.7,0,0,1-39-30.3,43.4,43.4,0,0,1-1.1-9.9q-.1-157,0-313.9c0-22.8,17.5-40.3,40.4-40.3H697.4c23,0,40.4,17.5,40.4,40.6q0,156.6,0,313.3c0,23.2-17.5,40.6-40.7,40.6ZM501.4,501.4V678.5h59c0-1.5,0-2.9,0-4.3q0-48.8,0-97.6a33.4,33.4,0,0,1,4.5-17.6c6.7-11.3,21.2-17,33.5-12.9s21,15.6,21.1,30.1q.1,49,0,97.9v4.3h59.1c0-1.1,0-2,0-2.8,0-36.1,0-72.2-.1-108.3a69.5,69.5,0,0,0-1.3-14.1c-4.4-20.6-15.9-36.5-34.2-46.8-23.6-13.3-47.5-12.2-69.2,4.4-4.8,3.7-8.8,8.3-13.5,12.8V501.4Zm-40,177.1v-177H402.9v177Zm6.1-246.2c-.2-19.8-15.2-35.3-35.5-35.5s-35.3,15.9-35.4,35.4,16.1,35.6,35.6,35.5A35.4,35.4,0,0,0,467.5,432.3Z" fill="#f5edde"/></svg>